<svg xmlns="http://www.w3.org/2000/svg" fill="none" viewBox="0 0 87 90"><style>.B{fill:#2f2f2f}.C{fill:#292929}.D{fill:#222}.E{fill:#1a1a1a}.F{fill:#272727}.G{fill:#202020}.H{fill:#2b2b2b}.I{fill:#1c1c1c}.J{fill:#1d1d1d}</style><path d="M61.351 12.495c-1.28.38-1.93-.5-2.62-1.3-.38-.43-1-.61-1.19-1.27a29 29 0 0 1-1.17-4.29 13.85 13.85 0 0 1-.49-1.92 1.91 1.91 0 0 1 .06-.67 8.78 8.78 0 0 1 1-2.12c.06-.11.17-.13.3-.17a2.62 2.62 0 0 1 1.86-.15 2.24 2.24 0 0 1 1.2.7 3.56 3.56 0 0 0 .8.93c.89.59.93 1.61 1.15 2.48l.53 2.14a25.74 25.74 0 0 1 .42 3.26c0 .47.1 1.08-.49 1.43a1.75 1.75 0 0 0-.8.9c-.09.24-.38.05-.56.05zm-2.67-9.27a.66.66 0 0 1-.17.44c-.07.12.09.22.15.14s.45-.38 0-.58c-.05-.22.14-.55-.19-.64-.1 0-.3.19-.31.41 0 .5.31.22.5.23h.02zm2.11-.07c0-.1-.08-.16-.16-.12a.24.24 0 0 0-.14.17c0 .11.08.12.16.12s.13-.09.14-.17zm-1.23-.17c0-.11 0-.22-.15-.19s-.1.11-.09.2 0 .19.13.15.08-.12.11-.16zm-.73 1.23c.09 0 .15 0 .12-.1s0-.08-.08-.08a.37.37 0 0 0-.14.07l.1.11zm.55-.53h-.1s-.05.08 0 .1.06 0 .1 0v-.1z" class="C"/><path d="M51.011 47.205c.38 0 .54-.44 1-.34 1.52.29 3 .65 3.87 2.05a3.8 3.8 0 0 1 .45 2.7 11.566 11.566 0 0 0 0 3.62 2.78 2.78 0 0 1-1 2.46c-.24.27-.67.12-1 .12a4.65 4.65 0 0 1-3.32-1.19 3.75 3.75 0 0 1-1-2.21l-.55-4.06c0-.16-.12-.38 0-.48.36-.5 0-.82-.24-1.18a.24.24 0 0 0 .14-.23h.23c0 .41.29.45.56.51a.57.57 0 0 0 .63-.4c.09-.22.33-.53-.08-.73l.07-.23c.24-.03.29-.12.24-.41zm1.5 1c0-.09 0-.2-.15-.19s.1.13.19.15c0 .22-.15.55.25.63 0 .13 0 .3.16.35s.18 0 .16-.13-.17-.21-.32-.23c-.05-.22.15-.54-.25-.62l-.04.04zm-1.2 1c-.19-.07-.31-.22-.51-.09.14.21.31.14.52.09h-.01zm1.85-1.49c.28 0 .44.11.6 0a.83.83 0 0 0-.6 0z" fill="#1f1f1f"/><path d="M82.731 43.565a.38.38 0 0 1-.36.24 6.502 6.502 0 0 0-1.06-.31c0 .24.36.36.29.64-.1.11-.24.24-.38.15-.76-.49-1.72-.6-2.4-1.1a4.93 4.93 0 0 1-2.33-3.35 26.265 26.265 0 0 1-.3-4.34c0-.16-.05-.33.15-.43a1 1 0 0 0 .7-1.19v-.13a4.62 4.62 0 0 1 0-.64.22.22 0 0 1 .077-.202.22.22 0 0 1 .213-.038c.59.27 1.09-.11 1.62-.15a1.62 1.62 0 0 1 1.48.74c.33.56.94.69 1.33 1.19a6.44 6.44 0 0 1 1.25 4.12c-.02.829.05 1.657.21 2.47a10.55 10.55 0 0 1-.08 2.1c0 .1-.13.06-.2.07-.2-.16-.19.01-.21.16zm-3.4-7.61.17.39c.07.13.11.35.34.28s.06-.17 0-.27c0-.33-.16-.56-.55-.4h.04zm1.4 1.09c-.08 0-.17 0-.2.1s.08.12.16.13.18 0 .2-.09-.08-.12-.15-.14h-.01zm1.6 5.6c0-.07 0-.18-.13-.15s-.1.11-.1.2 0 .18.14.15.1-.11.1-.2h-.01zm-.17-.67c.19.13.32.27.54.06a.49.49 0 0 0-.53-.06h-.01zm-3-5.68c-.06.05-.13.1-.13.12a.36.36 0 0 0 .12.18c.08 0 .17 0 .15-.1s-.07-.12-.13-.2h-.01zm1.38 1.92c0-.1 0-.14-.08-.14a.175.175 0 0 0-.15 0c0 .09 0 .15.1.15a.29.29 0 0 0 .13-.05v.04zm.07-.72-.2-.08c-.06 0-.14 0-.1.1a.39.39 0 0 0 .2.12c.08 0 .13 0 .11-.14h-.01zm1.15 5.53.12-.15c-.05 0-.09-.07-.13-.06s-.07.06-.11.1l.12.11z" class="H"/><path d="M20.591 53.955c.17.12.12.32.15.49-.12.2-.28.37-.48.15s-.35 0-.53-.07c-.35-.1-.31.25-.31.39s.19.12.33.1l1.15-.18v.24a3 3 0 0 0-1 .52.19.19 0 0 0-.08.25c.05.08.14.06.22 0s.46 0 .52-.33.22-.22.4-.22a11.12 11.12 0 0 1 .79 2.2 17.51 17.51 0 0 0 1.66 4c.45.74-.2 1.16-.42 1.69-.14.32-.44.43-.89.46a3.78 3.78 0 0 1-1.63-.3 9.681 9.681 0 0 1-2.17-.7 2.79 2.79 0 0 1-1-1.48 30.46 30.46 0 0 1-1.59-5.94c-.06-.39-.38-.76.11-1.16.16-.14 0-.62-.38-.69-.13 0-.42 0-.3-.16.26-.27.32-.8.65-.85.45-.123.878-.316 1.27-.57.05 0 .11-.12.15-.1.87.15 1.83.05 2.44.91-.34 0-.48.18-.43.52 0 0-.17-.06-.13.09l.13-.09c.39 0 .38-.27.42-.52a2.85 2.85 0 0 1 .68.86l-.87.27c-.16 0-.37 0-.32.26s.23.21.43.16.69-.15 1.03-.2zm-1.58-1.46a.87.87 0 0 0-.83 0 .14.14 0 0 0 0 .19c.28.13.52.06.8-.22l.03.03z" class="E"/><path d="M16.871 18.685c-.15 1.13.42 2.18.4 3.31a2.64 2.64 0 0 1-1.08 2.2 1.79 1.79 0 0 1-1.43.13 3 3 0 0 1-1.57-.8c-.45-.51-1-.87-1.48-1.42-.78-1-.74-2.21-1-3.34s-.29-2.19-.52-3.26c-.17-.77.32-1.26.6-1.82.1-.22.57.11.9.09 1-.08 1.82.59 2.81.53a1.46 1.46 0 0 1 1 .57 3.64 3.64 0 0 1 1 1.69 4.93 4.93 0 0 1 .37 2.12zm-4.78.44c0-.14.08-.33-.17-.45-.1.22-.14.39.17.45.13.42.41.19.76.28a.61.61 0 0 0-.76-.28zm.89.86a.222.222 0 0 0-.027-.094.25.25 0 0 0-.146-.125.25.25 0 0 0-.097-.011c-.15 0-.3.07-.29.25s.2.24.37.24.28 0 .22-.27l-.03.01z" class="J"/><path d="M33.711 29.645a2.07 2.07 0 0 1 .08-1.77 7.41 7.41 0 0 0 .41-1.67 4.58 4.58 0 0 1 .41-1.3.73.73 0 0 1 .59-.38l1.53-.44a.38.38 0 0 1 .44.08c.474.335.976.629 1.5.88a2.78 2.78 0 0 1 .92 1.14 6.48 6.48 0 0 1 .71 4.19c-.09.76-.13 1.525-.12 2.29 0 .4-.31.5-.44.74-.34.65-.77 1.41-1.65 1.33a18.61 18.61 0 0 1-2.46-.55c-.18 0-.26-.21-.34-.35a14.35 14.35 0 0 1-1.45-3.19c.39 0 .6-.42 1-.34-.19-.62-.75-.47-1.13-.66zm.57 1.44a.34.34 0 0 0 .33.27c.011.003.023.003.034.001s.022-.007.032-.013.017-.015.023-.025.009-.021.011-.033v-.05c-.06-.16-.18-.22-.42-.15h-.01zm.15-2.17-.52.47c.36-.08.36-.08.52-.47z" class="G"/><path d="M43.091 44.915a3.93 3.93 0 0 1 .82 2.11c0 1.19.32 2.34.41 3.51a2.65 2.65 0 0 1-1 2.2 1.94 1.94 0 0 1-1.49.15c-.66-.14-1.29-.38-2-.47-1.08-.14-1.45-.86-1.67-1.79a23.685 23.685 0 0 1-.56-3 1.35 1.35 0 0 1 .07-.49c.06-.22.1-.6 0-.65-.53-.23-.2-.69-.32-1s.19-.61.37-.78c.46-.41.85-.89 1.3-1.3a.83.83 0 0 1 .74-.26c.7.26 1.53 0 2.14.48a3.28 3.28 0 0 1 1.13 1.32c-.49-.08-.48-.07-.81.37-.19.25 0 .4.09.6.55-.18.7-.59.78-1zm-1.73 1.32c.21-.33-.1-.55-.12-.79 0 0-.11-.09-.14-.08a.37.37 0 0 0-.16.17 1 1 0 0 0 .76 1c.18 0 .3-.06.28-.24a.19.19 0 0 0-.019-.075.185.185 0 0 0-.047-.061.19.19 0 0 0-.144-.045h-.07c-.116.036-.23.08-.34.13v-.01zm.25.5c.04.045.087.082.14.11.1 0 .26.11.19-.1s-.2-.08-.33 0v-.01z" class="J"/><path d="M45.921 66.155a7.243 7.243 0 0 0 .23 2.58 2.18 2.18 0 0 1-.88 2.53 1.44 1.44 0 0 1-1.2 0c-.77-.31-1.59-.14-2.36-.4a1.28 1.28 0 0 1-.82-.67 10.53 10.53 0 0 1-1.28-4.45 1.26 1.26 0 0 0-.18-.71.33.33 0 0 1 0-.41c.65-.54.34-1.15.16-1.75-.08-.26-.05-.52.31-.55a2.44 2.44 0 0 0 1.18-.47 1 1 0 0 1 .63-.17 4.7 4.7 0 0 1 4.11 3.26 5.77 5.77 0 0 1 .1 1.21zm-14.05-16.55c-.15 1 0 1.91-.13 2.87a1.59 1.59 0 0 1-1.23 1.34 4.58 4.58 0 0 0-.73.1 2.19 2.19 0 0 1-1.6-.24 6.84 6.84 0 0 0-1.08-.45 2 2 0 0 1-1.6-2.22c-.06-.87-.19-1.73-.32-2.59 0-.19 0-.31.13-.42s.24-.38 0-.51c-.62-.32-.26-.72-.11-1.1.09-.21.24-.4.54-.26s.39 0 .46-.24a1.3 1.3 0 0 1 .578-.835 1.3 1.3 0 0 1 1.002-.165h.13a1.4 1.4 0 0 0 .5 0 3 3 0 0 1 2.13.95c1.17 1.06 1.29 2.4 1.33 3.77z" class="I"/><path d="M68.311 80.835c-.06-.8.06-.87.79-.69a4.53 4.53 0 0 1 2.47 1.27c.68.81 1.56 1.51 1.32 2.84-.1.831-.06 1.673.12 2.49a2.3 2.3 0 0 1-.55 2.21.68.68 0 0 0-.15.26 1.11 1.11 0 0 1-.587.62 1.11 1.11 0 0 1-.853.02c-.11 0-.23-.17-.35-.1-.73.43-1.3-.1-1.9-.34s-.74-1-.91-1.61a21.12 21.12 0 0 1-.52-4.82c0-.6.2-1.26-.15-1.84-.06-.1.68-.56.85-.5.144.055.284.118.42.19z" class="J"/><path d="M77.061 14.495a2.07 2.07 0 0 1-.387 1.548 2.07 2.07 0 0 1-1.373.813 1.52 1.52 0 0 1-.3 0c-2.26-.21-3.41-1.66-4-3.64a22.59 22.59 0 0 1-.63-3.05 1.56 1.56 0 0 1 .24-1.13.53.53 0 0 0 .15-.45 1 1 0 0 1 .09-.776 1 1 0 0 1 .62-.474 1.05 1.05 0 0 1 .68 0 1.26 1.26 0 0 0 .55.06c.4-.07.79-.25 1.2 0a3.9 3.9 0 0 1 1.61 1.82c.422.872.776 1.774 1.06 2.7l.49 2.58z" class="B"/><path d="M62.631 68.875c0 1 .3 1.87.29 2.83s-.22 1.17-1.09 1.39a2.315 2.315 0 0 0-.6.27c-.06 0-.13.15-.2.1-.84-.59-1.88-.38-2.81-.69s-1.1-1.15-1.37-1.9a13.91 13.91 0 0 1-.46-1.88 1.56 1.56 0 0 1 .23-1.57c.31-.35.13-.86 0-1.25a.62.62 0 0 1 .22-.84h.07c.43-.12.77-.47 1.23-.44a.57.57 0 0 0 .34-.07 1.38 1.38 0 0 1 1.61 0c.46.32 1.09.3 1.48.82a4.17 4.17 0 0 1 1.06 3.23z" class="G"/><path d="M83.171 58.835a4.16 4.16 0 0 1 3.49 2.74 7.13 7.13 0 0 1-.2 2.39l-.22 1.27c-.11.9-.49 1-1.33 1.3-1.29.54-2.22-.46-3.37-.45-.72 0-1.06-.64-1.25-1.34a10.16 10.16 0 0 1-.17-2.86.87.87 0 0 0 0-.36c-.38-.8-.35-.85.38-1.39a8.68 8.68 0 0 1 1.58-1 2 2 0 0 1 1.09-.3z" class="H"/><path d="M20.011 80.045a4.09 4.09 0 0 0-.39-2.36 3.68 3.68 0 0 1-.12-1.32 1.27 1.27 0 0 0-.08-.55c-.21-.53.09-.89.68-.8.13 0 .24.09.34 0s0-.25-.1-.37-.2-.31 0-.49.35-.15.54 0 .69.07 1 .16a11.44 11.44 0 0 1 2.14 1 2.85 2.85 0 0 1 1.23 2 25.95 25.95 0 0 1 .43 2.76 7.57 7.57 0 0 1 .05 2c-.08.55-.7.66-1.19.8-1 .26-2-.18-3 0a.35.35 0 0 1-.26-.13 5.76 5.76 0 0 1-1.27-2.7z" fill="#161616"/><path d="M34.161 68.275a7.22 7.22 0 0 0 0 2.41 2.24 2.24 0 0 1-1 2.11 2.17 2.17 0 0 1-1.44.14c-.87-.14-1.72-.4-2.58-.6-.19 0-.25-.18-.33-.33a8.69 8.69 0 0 1-.91-3.27 1.58 1.58 0 0 1 .16-.91c.15-.31.24-.59-.15-.79-.09-.05-.17-.2 0-.24.4-.13-.11-.9.57-.78.37.06.56-.12.74-.43a1.24 1.24 0 0 1 1.3-.56 4.83 4.83 0 0 1 2.5.77 3.45 3.45 0 0 1 1.14 2.48z" class="E"/><path d="M72.621 63.495c.15.63-.44 1.39-.29 2.24 0 .26-.51.25-.55.67s-.43.23-.7.31a3.31 3.31 0 0 1-2.44-.42 4.82 4.82 0 0 0-1.06-.25 1.48 1.48 0 0 1-1.22-1.07 16.517 16.517 0 0 1-.73-2.58c0-.14-.1-.31 0-.41.82-.63.46-1.43.32-2.19a.6.6 0 0 1 .06-.58c.15-.17.29 0 .43.06a1 1 0 0 0 .8-.08c.73-.39 1.35 0 1.94.25a8.714 8.714 0 0 1 2.11 1.15 3.41 3.41 0 0 1 1.33 2.9zm-1.23-1.87c-.09 0-.28 0-.23.16a.36.36 0 0 0 .24.25c.12 0 .23-.1.25-.23s-.13-.16-.26-.18zm-.17.7c.08.22.09.42.35.39 0 0 .1-.1.09-.12s-.15-.33-.44-.27z" class="D"/><path d="M46.901 87.495a1.14 1.14 0 0 1-.515.707 1.14 1.14 0 0 1-.864.133.636.636 0 0 1-.18-.06c-.07 0-.2-.09-.22-.06-.53.52-1-.07-1.52-.06s-.69-.44-.86-.82a11.08 11.08 0 0 1-.88-3.84 6.24 6.24 0 0 0-.27-2.43c-.09-.2.07-.36.12-.54l.11-.41c.03-.14-.53-.24-.13-.43s.7-.39 1 .06a.71.71 0 0 0 .07-.55c0-.11-.17-.24 0-.32a.41.41 0 0 1 .47 0c.93.73 2.09 1.12 2.86 2.1a4.82 4.82 0 0 1 1 2.56l.23 2.1c-.17.1-.15.19 0 .27l-.07.5a.26.26 0 0 0-.08.3v.52c-.25 0-.31-.25-.41-.48-.09.14-.18.2-.18.27 0 .29-.6.28-.34.61s.4-.19.66-.13z" fill="#171717"/><path d="M6.221 65.345c0-.18.08-.37-.18-.43a16 16 0 0 1-.8-3.26c.17-.18.2-.35 0-.5l-.08-.25c.16-.2.21-.38-.08-.5a2.67 2.67 0 0 1 .14-1.37c.08 0 .23 0 .25-.1s-.08-.15-.18-.16v-1.46c.14-.08.07-.38.3-.34s.14.24.11.4.06.18.18.14c.32-.1.73 0 .89-.44.24.05.49.12.16.37-.17.13-.35.2-.17.42a.48.48 0 0 0 .312.21.48.48 0 0 0 .368-.08.22.22 0 0 0 .09-.07c.16-.13.37-.34.11-.56-.11-.1-.29-.13-.12-.31a.32.32 0 0 1 .4-.07c.3.15.32.51.52.75s-.18.19-.28.29-.11.24.08.31a.58.58 0 0 0 .455-.076.58.58 0 0 0 .255-.384.51.51 0 0 0 0-.13c-.05-.39.16-.53.4-.34s.88.47 1.09.92a2.54 2.54 0 0 1 .35 1.4c-.07.55-.15.69-.71.48-.4-.15-1-.52-1 .45 0 .1-.16.19-.23.29s-.15.36 0 .45c.38.21.38.55.41.91 0 .13 0 .28.2.24a.65.65 0 0 0 .32-.27c.09-.13 0-.18-.14-.19s-.18-.11-.15-.25.13-.14.27-.15c.64 0 .83.25.64.93-.07.24-.39.42-.22.73.51-.1.58-.08.65.15.12.4-.21.3-.4.36s-.18.27-.15.42.16.2.33.1.26.07.25.22-.36.5-.59.56c-.05 0-.12.1-.1.12.14.37.26.9.6 1a.49.49 0 0 1 .4.36c.13.29-.17.36-.28.39-.57.15-.49.41-.09.78-.68.07-1.21-.34-1.82-.22-.22.05-.37-.18-.12-.41.1-.09.18-.22 0-.28a.51.51 0 0 0-.63.27.46.46 0 0 0 0 .63 1 1 0 0 1 .2 1.23c-.4-.25-.88-.4-1.13-.85l.08-.06.12-.12c.14 0 .47 0 .2-.26s-.36-.43-.68-.36c0-.3-.32-.52-.29-.84.05-.16-.07-.37.18-.5a.59.59 0 0 0 .29.359.59.59 0 0 0 .46.041c-.54-.45-.8-1-1.44-1.09zm3.61-6.14c-.15.09-.37-.19-.47.07s.06.24.19.27c.34.1.15-.26.28-.34zm-2 6.51c0 .27.48.29.32.65 0 .06.11.08.2.08a.91.91 0 0 0 .85-.58 2.05 2.05 0 0 0-.55 0 .54.54 0 0 1-.53-.35c-.06-.12-.09-.33.06-.39s.3.17.45.26a.7.7 0 0 0 .27.14c.23 0 .48 0 .55-.26s.05-.49-.24-.47c-.54 0-.73-.32-.9-.77-.28.31-.16.82-.65.85.2.23-.53.68.17.79v.05zm-.51-4.92c.16-.26.58-.28.61-.38.14-.48-.33-.49-.55-.4s-.14.47-.07.78h.01zm.13-1.61c.17-.06.36-.1.37-.34s-.15-.27-.34-.26-.38.08-.37.32.13.29.34.28zm2.56 7.61c-.37-.06-.59-.17-.8.09a.73.73 0 0 0 .8-.09zm-3.78-6.3a.36.36 0 0 0-.148.238.36.36 0 0 0 .068.272.23.23 0 0 0 .16 0 .6.6 0 0 0-.09-.51h.01zm3.23 3.6a.44.44 0 0 0-.62 0 .48.48 0 0 0 .61-.05l.01.05zm-.49-5a1.026 1.026 0 0 0-.16-.2h-.15c-.01 0 0 .19.12.22s.09 0 .18-.06l.01.04zm-1.96 1.92c0-.09 0-.13-.07-.13a.49.49 0 0 0-.21.08c-.06 0 0 .1 0 .11a.24.24 0 0 0 .28-.06zm2.42-2.17c-.06-.05-.1-.1-.14-.11a.158.158 0 0 0-.077.014.17.17 0 0 0-.063.047.1.1 0 0 0 .013.11.1.1 0 0 0 .107.03s.08 0 .15-.09h.01zm1 .71c-.2-.11-.3-.1-.38 0s-.05.14 0 .14a1.58 1.58 0 0 0 .37-.11l.01-.03zm-4.66.22-.18-.1c-.08 0-.13 0-.09.08a.23.23 0 0 0 .14.1c.05 0 .1 0 .13-.08zm2.29-.08c-.06 0-.13-.07-.15-.05a.2.2 0 0 0-.06.14c0 .06 0 .12.11.07a.966.966 0 0 0 .09-.16h.01zm1.6 6.69s0-.09-.05-.1-.06 0-.1 0 0 .09.05.1.06 0 .09 0h.01zm-1.5 1.94h-.1c-.02 0 0 .06-.05.1s.08 0 .1 0 0-.07 0-.11l.05.01zm2.13-9.65h-.11v.1a.13.13 0 0 0 .1 0v-.1h.01zm-4.51 1.5h-.1c-.02 0 0 .07 0 .1s.08 0 .1 0 0-.07 0-.1zm3.38-.5h-.1c-.03 0 0 .07-.05.1s.08 0 .1 0 0-.06 0-.1h.05zm.95 6.45h-.06a.085.085 0 0 1 0-.05l.06.05z" fill="#111"/><path d="M47.801 18.255a2.3 2.3 0 0 1-.79-1.58.4.4 0 0 0-.07-.24c-1-1.45-.37-2.79.39-4a1.35 1.35 0 0 1 1.49-.62c.222.058.451.082.68.07a1.16 1.16 0 0 1 1.08.5c.398.523.832 1.018 1.3 1.48a4.62 4.62 0 0 1 1 4.36 2.61 2.61 0 0 1-1.64 1.6 2 2 0 0 1-2.07-.44l-.52-.44c-.17-.15-.46-.61-.85-.69z" fill="#252525"/><path d="M38.811 7.735a2.93 2.93 0 0 1 .48 1.19c-.55.9-.61.94-1.45.88.3.92.51 1 1.29.52a1 1 0 0 1 .48-.09c.2.18.12.42.13.63l-.33-.16c-.21-.08-1 .25-.95.37.42.74 0 .72-.56.69a.94.94 0 0 1-.52-.06.27.27 0 0 0-.35.1.28.28 0 0 0 0 .2c.14.42.22.9.79 1a1.44 1.44 0 0 1 .54.3c.1.08.11.39.32.16a.28.28 0 0 0 .084-.2.28.28 0 0 0-.084-.2.248.248 0 0 0-.11-.06 4.33 4.33 0 0 1-.77-.52c-.13-.08-.38-.1-.28-.31s.32-.12.46 0c.51.26.76-.05.89-.44a1.22 1.22 0 0 1 .75-.72c.08.18-.16.49.2.5a1.37 1.37 0 0 1 .12.75.44.44 0 0 0-.26.54c0 .12.2 0 .32 0l.05.41h-.37c-.46 0-1-.09-.46.63.11.15 0 .2-.15.24-.65.2-.67.27-.2.81a.51.51 0 0 1 .17.5c-.06.26-.28.18-.47.18 0-.15.34-.17.14-.37a1.7 1.7 0 0 0-1.24-.71c-.51 0 .1.58-.25.83-.23-.54-.57-.84-1.16-.62a4.83 4.83 0 0 1-1.05-1.44c0-.13 0-.24-.13-.29a.82.82 0 0 1-.17-.48c0-.15 0-.28-.13-.34a16.466 16.466 0 0 1-.84-5.11c0-.12 0-.3.05-.36.43-.36.36-.85.38-1.32s.2-.47.41-.29a4.46 4.46 0 0 0 1.89.89.86.86 0 0 1 .68.64c0 .3.17.3.39.27-.07.27-.21.62.3.29h.23a.77.77 0 0 1 .46.37c-.03.13.09.21.28.2zm-2.67 5.88c0-.11 0-.25-.11-.31a.193.193 0 0 0-.071.037.19.19 0 0 0-.049.063c0 .16.1.2.23.21 0 .32.3.28.52.31a.19.19 0 0 0 .05-.062.192.192 0 0 0 .02-.078c-.1-.28-.35-.13-.53-.17h-.06zm2.32-5.4a2.81 2.81 0 0 1-.24.81c-.13.19.06.3.24.32s.29 0 .25-.23.08-.58-.25-.9zm-1.45 4.92c-.06-.05-.1-.1-.14-.11s-.14 0-.15.06 0 .14.13.14a1.21 1.21 0 0 0 .16-.1v.01zm2-.52c.07 0 .15 0 .16-.08a.1.1 0 0 0-.014-.11.1.1 0 0 0-.049-.031.104.104 0 0 0-.058.001.14.14 0 0 0-.04.1s0 .08.08.13l-.08-.01zm-1 1.29-.13-.1s-.08.09-.08.12.08.07.11.11l.1-.13zm-1-5v-.1c0-.02-.06 0-.1 0s0 .08 0 .1.07 0 .1 0z" fill="#1f1f1f"/><path d="M13.221 38.665a1.25 1.25 0 0 0-.54-.48 3.26 3.26 0 0 1-2-2.73 8.081 8.081 0 0 1-.26-2c0-.53-.49-.79-.74-1.17s-.45-.57.14-.69a.188.188 0 0 0 .074-.015.18.18 0 0 0 .099-.11.19.19 0 0 0 .008-.075c0-.57.2-.68.67-.36s.55.31.71-.28.73-.48 1.2-.51a2.75 2.75 0 0 0 .06.4c.25-.19.65 0 .82-.36a2 2 0 0 1 2 1c-.2.21-.47 0-.69.08.08.5.15 1 .74 1.12a.61.61 0 0 1 .34.55c-.17 0-.42.12-.3.28.47.62.26 1.37.49 2.06a3.085 3.085 0 0 0-.43 0c-.12 0-.33-.08-.29.19s.07.3.26.3.55.1.64-.11c.3-.7.56-.09.83 0v.25c-.37.05-.08.77-.65.63-.34-.08-.38.51-.79.32.15.39.47.4.73.51s.26.16.12.32-.25.3-.34.11c-.25-.51-.45-.09-.68 0-.09-.12-.19-.16-.31 0s0 .07 0 .11l.29-.06c.23.71-.4.13-.51.34-.67-.46-1.19-.09-1.69.38zm1.79-3.23-.19-.13a1.91 1.91 0 0 0-1.31.88c0 .24.12.25.26.21.51-.13.67-.77 1.21-.87v-.09h.03zm-3 1.06c.34.19.66-.07 1 0a.2.2 0 0 0 .23-.15c0-.15-.13-.18-.26-.2-.38-.06-.6.31-1 .37l.03-.02zm.17.43c-.13 0-.31-.09-.3.1s.47.22.55.53c0 0 .23-.19.25-.34.08-.45-.39-.04-.48-.25l-.02-.04zm1.13 1.14c.18-.08.28-.22.2-.39a.4.4 0 0 0-.5-.18c.23.16.13.46.32.61l-.02-.04zm1.52-2c.11 0 .2 0 .22-.16s0-.18-.14-.16-.25 0-.26.2.1.11.18.12zm.3-2.35c-.1 0-.16.07-.12.16a.24.24 0 0 0 .068.091c.03.024.065.041.102.049.11 0 .12-.08.12-.17s-.08-.13-.17-.13zm.2.89c-.05 0-.09-.1-.13-.1a.172.172 0 0 0-.064.043.16.16 0 0 0-.036.067c0 .08 0 .16.13.14s.06-.09.09-.15h.01zm-2.08 2.29c-.1 0-.14 0-.15.08a.23.23 0 0 0 .05.15c.08 0 .15 0 .15-.1a.5.5 0 0 0-.05-.13zm1.5.31s-.1.05-.12.09a.07.07 0 0 0-.021.05.07.07 0 0 0 .005.027.073.073 0 0 0 .016.023h.05a.25.25 0 0 0 .14-.08c0-.08 0-.1-.1-.12l.03.01zm-.81.09h.09v-.1c0-.04-.07 0-.09.06s0 .06 0 .09v-.05zm10.59-4.01c-.25 0-.23-.28-.32-.44s0-.28-.17-.32a2 2 0 0 1-.42-.87c.08 0 .19 0 .18-.13s-.16-.1-.26-.09l-.06-.14c0-.17.05-.36-.2-.4-.19-.23.11-.4.07-.61l.13-.15c.18 0 .36-.05.33-.26s-.26-.22-.45-.23h-.12c-.25-.28 0-.69-.25-1v-.31c.12-.4 0-.93.57-1.08.38.15.86 0 1.11.49.12.2.32.08.44 0s0-.21-.12-.28a.16.16 0 0 1-.051-.039.147.147 0 0 1-.031-.056.16.16 0 0 1 .012-.125c.07-.12.18-.06.27 0s.53.12.59-.17c.13-.64.65-1.2.36-1.92.9-.1 1.35.67 2 1.06a3 3 0 0 1 1.28 2.41c0 .14 0 .29.09.4a3.11 3.11 0 0 1 0 1c-.12 0-.34-.05-.25.21.15.44 0 .42-.35.29a2.037 2.037 0 0 0-.41-.13c-.23 0-.44-.38-.69 0a1 1 0 0 0 0 1c.07.23.37.33.36.6-.3.16-.4-.29-.65-.2-.1.29.16.33.28.43s.16.47.45.24.39-.33.18-.63 0-.31.19-.36l.6-.14c-.01.164-.03.328-.06.49-.12.36 0 .5.37.52l.06.62a.37.37 0 0 0-.25.37c-.53-.17-1 .26-1.6.11.49.17.37.59.46.92s0 .34-.24.35-.33 0-.37-.24a2.61 2.61 0 0 0-.14-.6c-.06-.15-.06-.41-.34-.34a.4.4 0 0 0-.34.45c.06.27-.07.48-.09.72h-.11c0-.29.16-.67-.27-.79s-.63.13-.85.4a1.47 1.47 0 0 0-.14.28c-.36-.32-.75-.62-.68-1.19a.42.42 0 0 0 .15.07c.07 0 .08 0 0-.05l-.25-.14zm-1-5.6c.15.31 1.13.39.19.81-.08 0 0 .18.1.26.4.54.64-.21 1-.13.13 0 .2-.11.19-.25s-.12-.2-.25-.22-.41.05-.47-.2c-.1-.46-.41-.29-.76-.27zm1.82 6.15a5.99 5.99 0 0 0 .37-.6.26.26 0 0 0 .077-.185.26.26 0 0 0-.077-.185.54.54 0 0 0-.35 0c-.19 0-.19.2-.16.34l.17.69-.03-.06zm1.66-1.92c-.3 0-.52-.09-.67.19a.53.53 0 0 0 .67-.2v.01zm2.09.88a.19.19 0 0 0-.041-.14.187.187 0 0 0-.128-.07c-.1 0-.15.06-.15.15s0 .22.12.24.18-.07.21-.18h-.01zm-2.71-1.38c0 .07-.09.12-.09.15s.07.08.1.12.09-.08.08-.11 0-.09-.09-.16zm-.21 1.78h.1a.09.09 0 0 0 .042-.041.092.092 0 0 0 .008-.059.07.07 0 0 0-.05-.021.07.07 0 0 0-.05.021s0 .06-.05.1zm.3.26s-.05.08 0 .1a.1.1 0 0 0 .1 0 .125.125 0 0 0 .011-.05.12.12 0 0 0-.011-.05h-.1zm-2.9-4.46-.1-.05s-.05.08 0 .1.06 0 .1.05v-.1zm.51.7h.05v-.06l-.05.06z" class="E"/><path d="M68.511 27.025a3.9 3.9 0 0 1-2 3.21 1.85 1.85 0 0 1-1.76-.28c-.52-.36-1.02-.747-1.5-1.16a4.29 4.29 0 0 1-1.24-2.16 2.17 2.17 0 0 1 .09-2.14c.1-.14.15-.34.4-.34.66 0 .91-.59 1.32-.93.12-.1.29-.33.35-.29.67.33 1.53-.22 2 .25 1.12.96 2.39 1.89 2.34 3.84z" class="F"/><path d="m69.441 43.555-.15 1.62c-.51-.19-.51-.87-1-1.08l.42-.08c-.42-.5-1.05-.16-1.54-.44-.15-.08-.21.16-.3.26s0 .2.09.28.27.18.29.29c.07.32.06.3.33.09s.62.28 1 .19c0 .21.3.39 0 .62s0 .2.09.25a1.24 1.24 0 0 0 .66.12.29.29 0 0 1 0 .09c-.6.38-.93-.08-1.32-.48.25.28-.25.71.17.82.339.131.656.313.94.54l-.2.37c-.41-.38-.61-.16-.68.38-.26-.44-.67-.83-.6-1.1.2-.86-.58-1.18-.8-1.79-.06-.18-.33-.13-.51-.1s-.21.09-.19.21.23.11.35.18a1.16 1.16 0 0 1 .589.676 1.16 1.16 0 0 1-.069.894c-.13 0-.06-.25-.23-.26-.36.5-.06.62.39.72l-2.13.23c-.27-.52-.74-.13-1.1-.25a6.79 6.79 0 0 1-1-6.05c-.33-.1-.35.46-.63.16s0-.39.06-.57.24-.49.34-.74c.16-.43.4-.69.89-.42.21.12.4 0 .61 0a7.66 7.66 0 0 1 4.54 2.73c0 .17 0 .35.21.39a.67.67 0 0 1 .31.62c-.16.06-.36-.24-.48 0s.17.23.26.36.21.28.39.27zm-2.49-2.64h-.06.05l.14.1v-.05l-.13-.05zm-3.14 3.51h.06v-.06c0-.25-.23-.34-.47-.48 0 .43.24.43.46.5l-.05.04zm4.2-1.7a13.69 13.69 0 0 1-1.61-.23.64.64 0 0 0-.69 0c-.11.09-.16.22 0 .32s.3.73.71.58 1.1.2 1.23-.57c-.04-.03.1-.04.36-.1zm-1.72 3.1c-.1-.3-.24-.45-.49-.47s-.2.15-.2.28c0 .31.23.29.44.29s.26 0 .25-.09v-.01zm-.93.72a.79.79 0 0 0 .76.06c.13-.07.28-.15.18-.32s-.24-.24-.37 0-.33.14-.57.29v-.03zm-.11-6.18a2 2 0 0 0 1 .05v-.16c-.3-.21-.59 0-.88 0l-.14.07.02.04zm1.46.6a.3.3 0 0 0-.26-.28.16.16 0 0 0-.065-.005.158.158 0 0 0-.061.021.16.16 0 0 0-.074.103.27.27 0 0 0 .065.197.27.27 0 0 0 .185.093c.12 0 .19 0 .21-.17v.04zm-1.55 3.35c.16.06.29.25.49.15a.15.15 0 0 0 0-.16c-.15-.21-.33-.14-.52 0l.03.01zm3.19 2.23a1.095 1.095 0 0 0-.17-.19c-.08 0-.18 0-.15.1a.35.35 0 0 0 .15.17s.09 0 .17-.07v-.01zm-2.13-1.43c-.15 0-.28-.27-.45 0 .15.16.3.11.45 0zm-1-2.29c0 .05-.11.08-.12.12a.2.2 0 0 0 0 .15c.09 0 .15 0 .16-.1s0-.09-.08-.17h.04zm3.09.43-.18.14s0 .1.09.12.17 0 .16-.1a.35.35 0 0 0-.07-.15v-.01zm-2.59-1.76a.513.513 0 0 0-.12-.08.07.07 0 0 0-.05-.021.07.07 0 0 0-.05.021.06.06 0 0 0-.008.03c0 .011.003.021.008.03a.16.16 0 0 0 .049.06.155.155 0 0 0 .071.03c.07 0 .12 0 .1-.1v.03zm-.07-1.65h-.1s-.05.08 0 .1.06 0 .1.05v-.15zm.3 1.32s-.08 0-.08.06v.1l.11-.08-.03-.08zm-.47 4.91h-.2l.09.06h.11v-.06zm.53-2.2h.06v.05l-.06-.05z" class="D"/><path d="M54.181 35.495c.1.93-.7 1.24-1.24 1.66s-1 .09-1.5-.15c-1.77-.83-2.45-2.42-3-4.12-.15-.52-.52-1-.38-1.59a2.85 2.85 0 0 1 0-1.56c0-.12 0-.32.14-.32.74 0 .73-.7 1-1.13.07-.1 0-.27.05-.44.19 0 .48.56.54-.1 0-.47.43-.59.79-.26s.34.22.61.06c.46-.25.82-.05 1 .44-.13 0-.28-.05-.38.09s0 .12.05.14.33.17.44-.06l.15.15c-.4.14 0 .48-.18.7s-.08.5.27.61a5.74 5.74 0 0 1 1 .4c.25.14.42.37.14.64a.56.56 0 0 0-.16.46h-.25c.06-.58-.43-.5-.75-.63-.06-.1-.11-.22-.26-.2a.09.09 0 0 0-.036.033.086.086 0 0 0-.014.047c0 .16.2.17.31.24s-.33.28-.06.46.38.07.25.31-.29.09-.45.11h-.36c-.53-.07-1-.57-1.66-.28a2.27 2.27 0 0 0 1.66.4c0 .13.19.32 0 .35-.58.08-.91.33-.77 1-.27-.09-.15-.52-.49-.44a.28.28 0 0 0-.17.15.29.29 0 0 0-.008.227.29.29 0 0 0 .062.098c.027.028.06.05.096.065.5.16.4.34 0 .57v.24c-.5 0-.44.2-.25.5l-.13.37c-.15 0-.29-.2-.48 0 .14.13.23.34.48.13.33 0 .53.18.75.37.07.42.31.19.5.13s.45.1.58-.18-.12-.29-.27-.38a.25.25 0 0 1-.12-.19c0-.14.15-.14.24-.12.36.09.8 0 .88.57 0 .24.25.49.54.34s0-.34 0-.52 0-.07.08-.12c.33.2.32.73.76.73zm-2.39-5.49c-.13.44-.36.51-.64.49a.173.173 0 0 0-.13.028.165.165 0 0 0-.046.049.17.17 0 0 0-.024.063.2.2 0 0 0 0 .11c.277-.001.553-.038.82-.11.2-.07.12-.3 0-.66l.02.03z" class="F"/><path d="M22.561 10.885c0-.78.42-1.5.27-2.3a.35.35 0 0 1 .23-.35c.14 0 .2.11.27.2a.76.76 0 0 0 .63.33c.09 0 .22 0 .21.06-.09.64.36.44.69.52s.79.31.78.83a.6.6 0 0 0 .32.5c1.55 1.14 1.84 2.81 1.88 4.57a1.66 1.66 0 0 1-1.18 1.51 1.36 1.36 0 0 1-1.49-.34c-.54-.43-1.21-.71-1.57-1.35a8.72 8.72 0 0 1-1.04-4.18z" class="D"/><path d="M8.391 69.005a1 1 0 0 0-.2-1.23.46.46 0 0 1 0-.63.5.5 0 0 1 .63-.27c.18.06.1.19 0 .28-.25.23-.1.46.12.41.61-.12 1.14.29 1.82.21-.4-.36-.48-.62.09-.77.11 0 .41-.1.28-.39a.49.49 0 0 0-.4-.36c-.34-.08-.46-.61-.6-1 0 0 .06-.11.1-.12.23-.06.57-.36.59-.56s0-.38-.25-.22-.29.1-.33-.1-.07-.34.15-.42.52 0 .4-.36c-.07-.24-.15-.25-.65-.15-.17-.31.15-.49.22-.73.19-.68 0-1-.64-.93-.14 0-.23 0-.27.15s0 .24.15.25.23.06.14.19a.65.65 0 0 1-.32.27c-.16 0-.19-.11-.2-.25 0-.35 0-.7-.41-.9-.17-.09-.11-.3 0-.45s.23-.2.23-.29c0-1 .61-.6 1-.45.55.21.64.07.7-.48a2.45 2.45 0 0 0-.34-1.4c-.21-.45-.72-.62-1.09-.92s-.45 0-.4.34a.6.6 0 0 1-.172.431.6.6 0 0 1-.428.179h-.13c-.19-.08-.22-.16-.08-.31s.45-.07.28-.29-.22-.6-.52-.75a.32.32 0 0 0-.4.07c-.17.18 0 .21.12.3.26.23.05.43-.11.57a.49.49 0 0 1-.69 0l-.08-.09c-.18-.22 0-.29.17-.42.33-.25.07-.32-.16-.37 0-.09 0-.2-.15-.19s.1.14.19.15c-.16.42-.57.34-.89.44-.13 0-.21 0-.18-.14s.15-.35-.11-.4-.16.26-.3.34c-.27-.33-.33.29-.57.09-.2-1 0-1.16 1-1.35.43-.08.72-.18 1.06.13.08.07.32 0 .48-.07a3.31 3.31 0 0 1 3.5 1.79 5.26 5.26 0 0 1 .24 1.89 16.32 16.32 0 0 0 .8 5.32 4.69 4.69 0 0 1 .21 3c-.07.22-.18.26-.35.38-.67.46-1.55.19-2.18.71a.189.189 0 0 1-.1 0c-.21-.41-.53-.13-.81-.14-.09.15-.13.06-.16.01zm.36-.38c.27.16.5-.32.7 0s.25.18.39.07 0-.41 0-.62-.25-.3-.31-.2c-.18.33-.71.28-.76.74l-.02.01z" class="E"/><path d="M6.011 37.405a.67.67 0 0 1 0 .5c-.19.07-.5-.14-.58.16-.14.48-.11.49-.64.51a.29.29 0 0 0-.222.081.29.29 0 0 0-.088.219h-.14c-.16 0-.33 0-.38.21h-.11c-.15-.4-.4-.27-.66-.14l-1.4-.62c-.47-.19-.49-.68-.73-1a2.65 2.65 0 0 1-.6-2.13c.18-.1.15-.19 0-.26v-.24a2.37 2.37 0 0 0 1.82.4c.4-.06.54.57 1 .63a.25.25 0 0 1 0 .17c-.17.2-.19.57-.58.56-.15 0-.39-.05-.35.21s.23.28.44.22a2.8 2.8 0 0 1 .9-.2c.12 0 .22-.06.19-.19-.12-.53.12-1.18-.54-1.52-.14-.06-.39-.07-.33-.29s.29-.12.44-.11c.36 0 .66 0 .62-.51 0-.23.16-.27.35-.2a.33.33 0 0 0 .253.012.33.33 0 0 0 .187-.172c-.33-.1-.69-.17-.55-.64.1 0 .23 0 .29.06s.37.48.59.36 0-.44-.07-.65 0-.4.26-.4a.51.51 0 0 1 .14.39c.06 1.51.49 3.02.49 4.58z" class="I"/><path d="M54.181 35.495c-.44 0-.43-.57-.76-.73 0 .06-.08.09-.07.13s.34.37 0 .52a.38.38 0 0 1-.367-.026.38.38 0 0 1-.173-.324c-.07-.56-.52-.48-.88-.56-.09 0-.22 0-.24.12a.25.25 0 0 0 .12.19c.15.09.39.1.27.38s-.35.23-.58.17-.33-.1-.5-.12c-.22-.19-.42-.41-.75-.37v-.14l.13-.37h.5c.18.12 0 .25 0 .38s0 .24.21.19.13-.39.25-.57.11-.41-.23-.37c-.17 0-.37.05-.5-.12s0-.21 0-.24c.34-.24.44-.41-.06-.57a.289.289 0 0 1-.105-.056.3.3 0 0 1-.108-.206.3.3 0 0 1 .014-.118.35.35 0 0 1 .17-.15c.35-.08.22.35.5.44-.15-.66.18-.91.76-1 .23 0 .07-.23 0-.35v-.13h.37c.15 0 .36.07.45-.1s-.14-.23-.26-.31.15-.29.07-.46v-.13c.31.13.81 0 .75.63-.09 0-.2 0-.19.15s.13-.1.15-.19h.25c.07.38.24.17.56 0h-.56a.53.53 0 0 1 .15-.45c.29-.28.11-.5-.14-.64a4.75 4.75 0 0 0-1-.4c-.35-.11-.53-.27-.27-.62s-.22-.56.18-.7l.19.35a.52.52 0 0 0 .25.64c.2.11.28-.07.36-.22.48.16.57.61.76 1 0 .16-.05.32.11.43a7.09 7.09 0 0 1 .23 3.51c.16.56.35 1.09-.01 1.51zm-1.28-1.45c.34-.1.65-.45 1.06-.12.1.08.19 0 .2-.15s0-.26-.19-.27a2 2 0 0 0-1 .05c-.28.13-.58.38-.39.73s.49.26.79.09c-.13-.15-.36-.09-.47-.29v-.04zm-.43-1v-.14l-.88-.3c-.09 0-.22 0-.24.08a.21.21 0 0 0 .15.24l.97.12zm.76-3.47h.1s-.06-.06-.09-.06a.24.24 0 0 0-.1.05l.09.01z" class="J"/><g class="D"><path d="M5.271 32.405c-.3 0-.33.13-.26.4s.35.5.07.65-.41-.19-.59-.36-.19 0-.29-.06c.2-.2-.34-.46 0-.62.11-.05.29 0 .26-.18a.47.47 0 0 0-.23-.27.69.69 0 0 0-.94.23.66.66 0 0 0-.09.31c0 .17 0 .41-.3.39s-.06-.23-.1-.33a.62.62 0 0 0-.59-.28c-.28 0-.28.13-.24.35a.21.21 0 0 1-.053.172.21.21 0 0 1-.076.053.203.203 0 0 1-.091.015.23.23 0 0 1-.2-.11.57.57 0 0 1-.062-.639.57.57 0 0 1 .572-.291 11.33 11.33 0 0 0 1.41-.28 2.37 2.37 0 0 1-.46-.49c-.49.69-.6.68-1-.06a.41.41 0 0 0-.21-.2c-.51-.08-.75-.63-1.25-.71.1-.35 0-.89.67-.66.32-.5.69-.23 1.11-.14a5.8 5.8 0 0 1 1.88 1.12.68.68 0 0 1 .38.53c0 .35-.1.74.4.84l.28.62zm-2.38-1.66-.1-.05v.1c0 .02.07 0 .1.05v-.1z"/><path d="M4.201 33.035c-.15.46.22.54.54.64a.32.32 0 0 1-.073.104.327.327 0 0 1-.108.067.32.32 0 0 1-.125.02.306.306 0 0 1-.123-.031c-.19-.07-.36 0-.34.2 0 .5-.26.52-.63.5-.15 0-.38-.09-.43.12s.18.22.32.29c.67.33.43 1 .55 1.52a.16.16 0 0 1-.043.147.16.16 0 0 1-.147.043 2.74 2.74 0 0 0-.9.2.32.32 0 0 1-.272-.007.32.32 0 0 1-.168-.213c0-.26.2-.22.35-.22.39 0 .4-.35.58-.55a.25.25 0 0 0 0-.17c-.43-.06-.57-.69-1-.63a2.4 2.4 0 0 1-1.82-.4l-.14-1.26c.58.16.4-.51.71-.7l.18.27c.2.34.19.33.55.1.19-.11.33 0 .37.19.15.8.6.72 1.07.52a1.28 1.28 0 0 1 .47-.14c.45 0 .4-.17.14-.42-.07-.06-.22-.08-.14-.22a.23.23 0 0 1 .28-.09l.35.1v.02z"/></g><path d="m4.201 33.035-.36-.1a.23.23 0 0 0-.28.08c-.08.14.08.16.15.22.26.25.31.42-.15.42-.16.021-.316.068-.46.14-.48.2-.92.28-1.08-.52 0-.2-.18-.3-.36-.18-.37.22-.36.23-.56-.1l-.17-.28c-.32.19-.13.85-.71.7a.82.82 0 0 1-.17-.288.82.82 0 0 1-.04-.332c.35 0 .62-.07.62-.46s-.36-.24-.59-.3A.44.44 0 0 1 0 31.85a.44.44 0 0 1 .041-.185c.29-.09.32-.7.83-.41 0 .2-.38.25-.24.46s.3.06.46 0 .13-.29.07-.49c-.11-.37-.18-.67-.65-.33-.1.07-.28 0-.42 0s0-.19 0-.27.21 0 .22-.11-.1-.08-.16-.12c0-.27.06-.4.35-.31.5.08.74.63 1.25.71.08 0 .17.12.22.2.42.74.53.75 1 .05.127.187.282.352.46.49a9.532 9.532 0 0 1-1.41.28.58.58 0 0 0-.425.134.58.58 0 0 0-.205.396.57.57 0 0 0 .12.41.23.23 0 0 0 .2.11.21.21 0 0 0 .217-.019.21.21 0 0 0 .083-.201c-.05-.22-.05-.37.24-.35a.6.6 0 0 1 .58.28c0 .09-.25.31.1.33s.27-.23.3-.4a.67.67 0 0 1 .248-.49.67.67 0 0 1 .532-.14.71.71 0 0 1 .31.1.44.44 0 0 1 .23.27c0 .17-.15.13-.26.17-.43.16.11.42-.09.62zm-1.38.46c.17 0 .35.05.56-.09-.24-.1-.44-.36-.56.09-.09 0-.2 0-.19.15s.13-.09.15-.18l.04.03z" class="I"/><path d="M36.061 14.745c.59-.22.93.08 1.17.61.34-.24-.27-.8.25-.82a1.69 1.69 0 0 1 1.18.57c.2.2-.14.23-.13.38.19 0 .4.08.47-.18a.52.52 0 0 0-.17-.5c-.48-.55-.45-.62.19-.81.14 0 .26-.09.15-.24-.53-.72 0-.65.46-.63a2.22 2.22 0 0 1 .37 0 1.94 1.94 0 0 1 .001 1.752 1.94 1.94 0 0 1-1.411 1.038c-1.3.37-1.8-.54-2.53-1.17z" class="F"/><path d="M13.221 38.665c.5-.47 1-.84 1.73-.41.11-.21.74.37.52-.34.22-.08.43-.5.68 0 .09.19.25 0 .33-.1s0-.27-.11-.33-.58-.12-.73-.51c.41.2.45-.4.78-.32.58.14.29-.58.65-.63a5.36 5.36 0 0 1-.21 2.47c0 .1 0 .26-.09.28a4.72 4.72 0 0 1-1.64.45 4.36 4.36 0 0 1-1.64-.34c-.11-.06-.25-.06-.27-.22z" class="G"/><path d="m65.071 47.055 2.13-.23c-.45-.11-.75-.22-.39-.72.17 0 .1.22.22.26a1.15 1.15 0 0 0-.55-1.53c-.11-.07-.32 0-.35-.18s.1-.19.2-.21.44-.08.51.1c.22.6 1 .93.79 1.78-.06.28.35.67.6 1.11.08-.55.27-.76.69-.39a2.25 2.25 0 0 1-.75.87c-.06 0-.15.15-.2.13-.47-.21-.88.17-1.33.13.1-.52 0-.81-.63-.9-.31-.05-.67.02-.94-.22z" class="C"/><path d="M26.121 25.145c.29.71-.23 1.28-.36 1.92-.06.28-.36.22-.59.16s-.2-.08-.27 0a.16.16 0 0 0-.032.171.16.16 0 0 0 .056.071.156.156 0 0 0 .086.029c.1.07.35.08.12.28s-.32.22-.43 0c-.26-.45-.74-.34-1.11-.49-.3-.92.42-1.27 1-1.73a1.56 1.56 0 0 1 .51.6c.08.19.3.34.42.1s.61-.63.43-1.12l.17.01z" class="D"/><path d="M29.431 32.285c-.34 0-.49-.16-.37-.52.04-.16.06-.325.06-.49l-.6.14c-.17.06-.32.16-.18.36s0 .48-.18.63-.33-.13-.46-.24-.38-.14-.28-.43c.26-.08.35.36.66.2 0-.27-.29-.37-.37-.6a1 1 0 0 1 0-.94c.25-.38.46 0 .69 0 .145.021.286.062.42.12.3.13.5.15.35-.28-.09-.27.12-.2.24-.22.07.504.07 1.016 0 1.52l-.09.05.1.08a.79.79 0 0 1 .01.62zm-2.84 2.36c0-.24.14-.45.08-.72a.4.4 0 0 1 .34-.43c.28-.07.28.19.34.34a4.35 4.35 0 0 1 .14.6c0 .23.19.24.37.24s.28-.17.23-.35c-.08-.33 0-.75-.45-.92.57.15 1.06-.28 1.6-.11-.3.8-.65 1.5-1.6 1.72-.47.09-.73-.18-1.05-.37zm13.18-23.15c-.36 0-.12-.31-.2-.49a1.24 1.24 0 0 0-.75.72c-.12.38-.38.7-.89.44-.14-.08-.38-.11-.45.05s.14.23.27.31a4.99 4.99 0 0 0 .77.52.28.28 0 0 1 .101.045c.03.022.056.049.075.081a.28.28 0 0 1 .034.214.24.24 0 0 1-.06.11c-.22.24-.22-.07-.33-.16a1.59 1.59 0 0 0-.54-.3c-.56-.11-.65-.6-.78-1a.26.26 0 0 1 .16-.32.31.31 0 0 1 .21 0 1.11 1.11 0 0 0 .51.06c.55 0 1 0 .57-.69-.07-.13.73-.45.94-.37a2.54 2.54 0 0 1 .33.16c.27.19-.01.41.03.62z" class="F"/><path d="M17.011 35.785c-.27-.08-.52-.68-.82 0-.09.21-.42.11-.64.11s-.23-.16-.26-.3.17-.17.29-.19.28 0 .42-.05c-.22-.69 0-1.44-.48-2-.13-.17.12-.26.3-.28 0 .47.57.77.44 1.33-.05.24.27.32.52.28l.23 1.1z" class="G"/><path d="M69.341 45.675a1.4 1.4 0 0 1-.67-.11c-.14-.06-.24-.12-.09-.26s-.1-.41 0-.62c-.37.09-.7-.39-1-.18s-.27.22-.33-.1c0-.11-.19-.2-.3-.29s-.22-.14-.08-.28.15-.34.3-.25c.48.27 1.11-.07 1.53.43l-.42.09c.52.21.52.88 1 1.07l.06.5z" class="C"/><path d="M15.851 33.035a.63.63 0 0 0-.35-.56c-.58-.16-.65-.61-.74-1.12.23-.07.5.14.7-.07a2.67 2.67 0 0 1 .9 1.74h-.51v.01z" class="G"/><path d="M39.611 10.235a1 1 0 0 0-.48.09c-.78.48-1 .4-1.29-.52.84.06.9 0 1.45-.88.46.35.3.86.32 1.31z" class="F"/><path d="M50.631 47.795c.41.19.17.51.08.73a.56.56 0 0 1-.63.39c-.27-.06-.6-.1-.56-.51-.12-.17-.32-.33.08-.46s.71.05 1.03-.15z" class="C"/><path d="M6.011 37.405c0-1.56-.45-3.07-.62-4.61a11.12 11.12 0 0 1 .62 2.79 5.84 5.84 0 0 1 0 1.82z" class="B"/><path d="M65.071 47.055c.27.24.63.17.94.22.59.09.72.39.63.9-.32-.25-.74-.2-1.07-.39 0-.27-.23-.23-.41-.22a.4.4 0 0 1-.35-.24c0-.16.08-.27.26-.27z" class="D"/><path d="M25.871 25.145c.18.5-.26.77-.43 1.12s-.34.09-.42-.1a1.72 1.72 0 0 0-.51-.6 4.57 4.57 0 0 1 1.36-.42z" class="E"/><path d="M4.451 38.885c0-.19.1-.3.31-.3.53 0 .5 0 .64-.51.08-.3.39-.09.58-.17.12.37.06.63-.38.74s-.7.42-1.15.24z" class="B"/><path d="M25.211 34.495a1.71 1.71 0 0 1 .14-.27c.22-.27.48-.5.85-.4s.25.5.28.79a1.3 1.3 0 0 0-.85 0 .31.31 0 0 1-.42-.12z" class="F"/><path d="M69.111 46.685a3.617 3.617 0 0 0-.94-.53c-.42-.11.09-.54-.16-.83.38.41.71.87 1.31.48-.12.28.04.63-.21.88z" class="C"/><path d="M.111 30.895c.14 0 .33.05.42 0 .47-.34.54 0 .65.33.06.2.21.35-.07.49s-.35.16-.46 0 .21-.26.24-.45c-.51-.3-.54.32-.83.41l.05-.78z" class="D"/><path d="M33.711 29.645c.38.19.94 0 1.14.66-.41-.08-.62.35-1 .34a2 2 0 0 1-.14-1z" class="B"/><path d="M15.851 33.035h.51l.13.2c0 .16-.07.34.14.43a.84.84 0 0 1 .09.62c-.16.15-.07.22.09.27a.07.07 0 0 1 0 .09c-.25 0-.57 0-.52-.28.13-.56-.4-.87-.44-1.33z" class="E"/><path d="M20.591 53.955c-.34 0-.68.08-1 .16s-.38.08-.43-.16.16-.23.31-.27l.87-.27.25.54z" class="D"/><path d="M6.221 65.345c.64.09.9.64 1.41 1.06a.6.6 0 0 1-.459-.032.6.6 0 0 1-.301-.348c-.24.13-.12.34-.17.5a3 3 0 0 1-.48-1.18z" class="E"/><path d="m20.901 54.825-1.15.18c-.14 0-.34.13-.33-.1s0-.49.31-.39c.18 0 .35-.12.53.07s.36 0 .48-.15a.32.32 0 0 1 .16.39z" class="D"/><path d="M81.601 44.115c.07-.28-.24-.4-.29-.64.362.08.717.19 1.06.33-.14.39-.46.34-.77.31z" class="B"/><path d="M.091 32.025c.22 0 .59-.15.59.3s-.28.5-.63.46a1.32 1.32 0 0 1 .04-.76zm20.92 23.3c-.18 0-.36 0-.4.22s-.33.26-.52.33-.17 0-.22 0a.18.18 0 0 1-.027-.065c-.005-.023-.005-.047 0-.07s.014-.045.027-.065.03-.036.05-.05a2.7 2.7 0 0 1 1-.51l.09.21z" class="D"/><path d="M7.011 67.355c.33-.07.52.18.69.37s-.07.22-.2.25c0-.08-.09-.09-.13 0h-.19a.46.46 0 0 1-.17-.61v-.01z" class="E"/><path d="M46.901 87.495c-.26-.08-.54.28-.69.1-.26-.33.35-.32.34-.61 0-.07.09-.13.18-.27.1.23.16.46.41.48 0 .19-.13.23-.24.3z" class="C"/><path d="M69.441 43.555c-.18 0-.24-.13-.32-.25s-.36-.16-.26-.37.33.05.49 0c.24.17.16.4.09.62z" class="B"/><path d="M65.071 47.055c-.18 0-.25.11-.26.27a2 2 0 0 1-.84-.52c.35.12.83-.31 1.1.25z" class="C"/><path d="M53.311 29.115c-.08.15-.16.32-.37.21a.51.51 0 0 1-.24-.63c.19.16.49.15.61.42z" class="F"/><path d="M13.471 30.315c-.17.34-.57.17-.82.36a2.56 2.56 0 0 1-.06-.4l.88.04z" class="G"/><path d="M47.801 18.255c.39.08.58.43.86.65-.54.12-.65-.36-.86-.65z" class="B"/><path d="M39.951 12.755c-.11 0-.29.15-.32 0a.45.45 0 0 1 .26-.54.65.65 0 0 1 .06.54z" class="F"/><path d="M5.011 31.785c-.51-.1-.4-.5-.4-.84l.4.84z" class="B"/><path d="M19.231 53.065c0-.33.08-.5.42-.51 0 .25 0 .55-.42.52v-.01z" class="D"/><path d="M3.161 38.935c.26-.14.51-.26.66.14-.18-.24-.48.11-.66-.14zm20.32-8.81-.13.15c-.18-.19-.32-.38-.11-.64h.12a.74.74 0 0 0 .12.49z" class="B"/><path d="M38.071 7.085h-.23c-.52.33-.37 0-.3-.29l.53.29z" class="C"/><path d="M52.361 28.195c-.11.23-.28.17-.44.06s-.07-.12 0-.14l.38-.09.06.17z" class="J"/><path d="M5.011 60.335c.29.12.24.3.08.5l-.08-.5zm.15.75c.25.15.21.32 0 .5v-.5z" class="E"/><path d="M23.011 28.375v.31c-.1 0-.23.06-.25-.07s.09-.2.25-.24z" class="H"/><path d="M29.251 33.275a.35.35 0 0 1 .24-.37c.13.26-.05.32-.24.37z" class="F"/><path d="M3.931 39.115c.05-.2.22-.2.38-.2-.07.17-.18.27-.38.2z" class="B"/><path d="M37.541 6.835c-.21 0-.4 0-.39-.27.15.06.32.09.39.27z" class="C"/><path d="M5.211 58.705c.1 0 .22 0 .18.16s-.16.06-.25.1l.07-.26z" class="E"/><path d="M51.011 47.205c0 .25-.08.38-.34.36a.67.67 0 0 1 .34-.36z" class="C"/><path d="M16.631 33.655c-.21-.09-.15-.27-.14-.43.18.11.14.27.14.43z" class="G"/><path d="M23.281 30.895c.25 0 .2.23.2.4a.48.48 0 0 1-.2-.4zm45.73 11.41c-.25 0-.21-.22-.21-.39.21.07.21.24.21.39z" class="B"/><path d="M29.471 29.015c-.13-.11-.1-.26-.09-.4.15.11.31.21.09.4z" class="F"/><path d="M38.811 7.735c-.2 0-.31-.07-.28-.29a.53.53 0 0 1 .28.29z" class="C"/><path d="M54.171 30.495c-.15-.11-.12-.27-.11-.43a.33.33 0 0 1 .11.43z" class="F"/><path d="M6.011 64.845c.26.06.2.25.18.43a.49.49 0 0 1-.18-.43z" class="E"/><path d="M65.161 47.575c.18 0 .37 0 .41.22a.64.64 0 0 1-.41-.22z" class="C"/><path d="M34.591 12.105c.17.06.17.2.13.35a.39.39 0 0 1-.13-.35z" class="B"/><path d="M.391 34.905c.18.07.21.15 0 .26v-.26z" class="D"/><path d="M49.291 48.495a.22.22 0 0 1-.14.22c-.14-.22-.01-.22.14-.22z" class="C"/><path d="M82.731 43.565c0-.15 0-.32.24-.16l-.24.16z" class="B"/><path d="M.221 30.395c.06.05.16.09.16.13s-.13.11-.22.11l.06-.24z" class="D"/><path d="M23.541 31.435c.1 0 .23-.05.26.09s-.1.12-.18.13l-.08-.22z" class="H"/><path d="M47.331 85.895c-.17-.08-.19-.17 0-.27.1.08.08.17 0 .27z" class="C"/><path d="M16.811 34.555c-.16-.05-.25-.12-.09-.27a.21.21 0 0 1 .09.27z" class="G"/><path d="M47.191 86.695a.25.25 0 0 1 .08-.3.18.18 0 0 1 0 .25l-.08.05z" class="C"/><path d="M24.011 32.495c.18 0 .21.17.17.32l-.17-.32zm10.85-19.51c.14 0 .15.16.14.28-.15-.04-.15-.16-.14-.28zm-10.33 20.3a.47.47 0 0 1 .17 0c0 .06.06 0 0 0l-.15-.07-.02.07z" class="B"/><path d="M48.091 31.335c0 .06-.06.05-.05 0s.07 0 .1 0h-.05z" class="F"/><path d="M7.141 67.995h.19v.12l-.08.06-.11-.18z" fill="#111"/><path d="m29.461 31.665-.1-.07.09-.05.01.12z" class="E"/><path d="M58.681 3.225c-.2 0-.53.27-.5-.23 0-.22.2-.44.31-.41.33.09.14.42.19.64zm0 0c.43.2.12.41 0 .58s-.22 0-.15-.14a.66.66 0 0 0 .17-.44h-.02zm2.11-.07c0 .09 0 .16-.14.17s-.18 0-.16-.12a.26.26 0 0 1 .14-.17c.08-.04.16.01.16.12zm-1.23-.17s-.06.14-.11.16-.12-.08-.13-.16a.16.16 0 0 1 .09-.2c.12-.02.11.09.15.2zm-.73 1.23-.1-.12a.35.35 0 0 1 .14-.06.11.11 0 0 1 .08.07c.06.09-.03.1-.12.11zm.55-.53v.1h-.1c-.01 0 0-.07 0-.1h.1z" class="B"/><path d="M52.541 48.185c.4.08.2.4.25.62-.4-.08-.19-.4-.25-.62zm.25.62c.16 0 .3.06.33.23s-.08.14-.16.13-.16-.22-.17-.35v-.01zm-1.44.33c-.21 0-.38.12-.52-.09.18-.13.33.02.52.09zm1.84-1.49a.83.83 0 0 1 .6 0c-.15.11-.32.02-.6 0zm-.65.54c-.09 0-.2 0-.19-.15.14 0 .14.1.15.19l.04-.04z" class="C"/><path d="M79.341 35.955c.4-.16.5.07.55.41 0 .1.08.22 0 .26s-.26-.14-.33-.28a2.535 2.535 0 0 1-.22-.39zm1.4 1.09c.07 0 .18 0 .16.14s-.12.1-.2.09-.19 0-.16-.13.12-.1.2-.1zm1.6 5.6c0 .09 0 .18-.1.2s-.12-.07-.13-.15 0-.18.09-.2.12.08.14.15zm-.17-.67a.47.47 0 0 1 .53.07c-.21.21-.35.06-.53-.07zm-3.02-5.68c.06.08.13.14.14.2s-.07.14-.15.1a.32.32 0 0 1-.12-.18l.13-.12zm1.37 1.92a.26.26 0 0 1-.12.05c-.1 0-.15-.06-.1-.15s.1 0 .15 0 .11 0 .07.1zm.1-.72c0 .13 0 .16-.1.14a.28.28 0 0 1-.2-.12c0-.07 0-.11.1-.1l.2.08zm1.15 5.54-.12-.11s.07-.1.11-.1.08.05.12.07l-.11.14z" class="B"/><path d="M19.011 52.495c-.28.28-.52.35-.8.22-.015-.008-.029-.02-.04-.033s-.019-.029-.023-.046a.13.13 0 0 1-.004-.052.125.125 0 0 1 .017-.049.85.85 0 0 1 .85-.04zm.22.57-.13.1c-.09-.15.08-.06.13-.1z" class="D"/><g class="F"><path d="M13.011 19.985c.06.29-.1.27-.22.27s-.35 0-.37-.24.14-.23.29-.25a.24.24 0 0 1 .185.033.24.24 0 0 1 .104.157l.01.03zm-.92-.86a.6.6 0 0 1 .75.28c-.34-.09-.62.14-.76-.28h.01z"/><path d="M11.921 18.675c-.1.22-.14.39.17.45-.03-.14.07-.33-.17-.45z"/></g><path d="M34.291 31.085c.24-.07.36 0 .42.15s0 .1-.05.11a.34.34 0 0 1-.37-.26z" class="C"/><path d="M33.911 29.385c.36-.08.36-.08.52-.47l-.52.47z" class="B"/><path d="M43.091 44.915c-.11.41-.22.82-.74.95-.06-.19-.27-.35-.08-.6.32-.44.32-.44.81-.36l.01.01zm-1.73 1.32c.111-.05.224-.094.34-.13a.2.2 0 0 1 .26.11v.06c0 .18-.1.25-.29.24a1 1 0 0 1-.75-1 .37.37 0 0 1 .16-.17.23.23 0 0 1 .14.08c.04.26.35.48.14.81zm.25.5c.13-.07.29-.09.33 0s-.09.15-.19.1a.49.49 0 0 1-.14-.1z" class="D"/><path d="M71.391 61.585c.12 0 .3 0 .26.18s-.13.25-.25.23a.39.39 0 0 1-.25-.25c-.04-.19.15-.13.24-.16zm-.17.7c.29-.06.36.11.44.27s-.06.12-.09.13c-.26.03-.27-.19-.35-.4z" class="B"/><path d="M7.831 65.715c-.7-.11 0-.56-.19-.79.5 0 .38-.54.66-.85.17.45.36.81.9.77.29 0 .28.26.23.47s-.31.3-.54.26a.7.7 0 0 1-.27-.14c-.15-.09-.23-.35-.45-.27s-.12.28-.06.4a.54.54 0 0 0 .53.35 1.69 1.69 0 0 1 .55 0 .92.92 0 0 1-.85.58c-.09 0-.23 0-.2-.08.16-.36-.32-.38-.32-.65l.01-.05zm-.52-4.92c-.07-.3-.27-.66.07-.79s.68-.07.55.4c-.03.09-.44.09-.62.39zm.14-1.61c-.21 0-.34-.09-.35-.28s.17-.31.38-.32.34 0 .34.26-.21.28-.37.34zm2.56 7.61a.75.75 0 0 1-.8.09c.24-.26.46-.15.8-.09zm-.18-7.59c-.13.08.06.44-.28.34-.13 0-.24-.15-.19-.27s.32 0 .47-.07zm-3.61 1.29a.6.6 0 0 1 .1.55h-.15a.37.37 0 0 1 0-.52l.05-.03zm3.23 3.58a.5.5 0 0 1-.62.05.45.45 0 0 1 .62-.05zm-.44-4.98c-.1 0-.15.07-.19.06s-.17-.12-.12-.23a.193.193 0 0 1 .15 0c.06.05.113.107.16.17zm-2 1.92a.23.23 0 0 1-.25.06c-.07 0-.09-.07 0-.11a.39.39 0 0 1 .21-.08c.04-.01.04.04.04.13zm2.42-2.17c-.07 0-.11.09-.16.09s-.15 0-.12-.14.1-.07.14-.06.08.06.14.11zm1.01.7a1.55 1.55 0 0 1-.37.1c-.06 0-.07-.1 0-.14s.17-.07.37.04zm-4.66.23c0 .11-.08.1-.13.08a.3.3 0 0 1-.14-.1c0-.08 0-.12.08-.09a1.19 1.19 0 0 1 .19.11zm2.28-.08a.55.55 0 0 1-.1.16c-.06 0-.11 0-.11-.07a.26.26 0 0 1 .07-.15s.09.03.14.06zm1.6 6.68s-.08.05-.1 0 0-.06 0-.1.08 0 .1 0-.01.07 0 .1zm-1.5 1.94s0 .09-.05.1-.07 0-.1 0 0-.09.05-.1.06-.02.1 0zm2.13-9.64v.1a.1.1 0 0 1-.1-.05v-.1l.1.05zm-4.51 1.5v.1c0 .01-.07 0-.1 0s0-.09 0-.1.06-.02.1 0zm3.38-.5s0 .09-.05.1-.06 0-.1 0 0-.09.05-.1.07-.01.1 0zm.95 6.45a.42.42 0 0 0 0 .05v-.05zm-2.78 1.97v-.12h.13l-.13.12z" class="E"/><path d="M38.461 8.215c.33.32.2.63.25.9s-.09.25-.25.23-.37-.13-.24-.32a2.81 2.81 0 0 0 .24-.81zm-2.32 5.4h.06c.18 0 .43-.11.53.17 0 0 0 .15-.07.14-.22 0-.48 0-.52-.31zm0 0c-.13 0-.25 0-.23-.21a.19.19 0 0 1 .049-.063.193.193 0 0 1 .071-.037c.14.06.09.19.11.31zm.87-.49c-.08 0-.12.09-.16.09s-.16 0-.13-.14.1-.06.14-.05.07.05.15.1zm2-.51s-.06-.12 0-.12a.15.15 0 0 1 .046-.067.147.147 0 0 1 .074-.033c.08 0 .15 0 .12.14s-.14.05-.24.08zm-1 1.28-.1.13s-.1-.07-.11-.11.05-.08.08-.12l.13.1zm-1-4.96a.3.3 0 0 1-.1 0v-.1c0-.03.09 0 .1 0s.05.07 0 .1z" class="F"/><path d="M15.011 35.435v.06c-.54.1-.7.74-1.21.87-.14 0-.31 0-.26-.21a1.91 1.91 0 0 1 1.31-.88l.16.16zm-3 1.06c.36-.06.58-.43 1-.37.13 0 .27 0 .26.2a.19.19 0 0 1-.086.153.19.19 0 0 1-.174.018c-.32 0-.64.23-1 0zm.19.47c.09.21.56-.2.5.29 0 .15-.24.38-.25.34-.08-.32-.52-.25-.55-.54s.17-.12.3-.09zm1.13 1.14c-.19-.16-.09-.45-.34-.58a.41.41 0 0 1 .54.19c.08.17-.02.31-.2.39zm1.52-1.95c-.08 0-.19 0-.18-.12s.15-.18.26-.2.15.07.14.16-.06.16-.22.16zm.3-2.35c.09 0 .16 0 .17.13s0 .19-.12.17a.26.26 0 0 1-.17-.14c-.02-.09-.02-.16.12-.16zm.19.89c0 .06-.05.14-.1.15s-.13-.06-.12-.14a.16.16 0 0 1 .036-.067.158.158 0 0 1 .064-.043s.08.06.12.1zm-2.07 2.29a.5.5 0 0 1 .05.13.1.1 0 0 1-.008.055c-.008.017-.02.032-.036.042s-.034.016-.053.017-.037-.004-.054-.014c0 0-.05-.1-.05-.15a.1.1 0 0 1 .016-.048.1.1 0 0 1 .037-.034.1.1 0 0 1 .097.002zm1.5.31c.07 0 .14 0 .1.12a.22.22 0 0 1-.14.08.08.08 0 0 1-.09-.06s.09-.11.13-.14zm.7.62-.29.06v-.11c0-.01.22-.07.31.05h-.02zm-1.46-.53v-.09c0-.02.06 0 .09-.06s0 .08 0 .1-.09.03-.09.05z" class="G"/><path d="M23.491 27.685c.35 0 .66-.19.76.27.06.25.29.17.47.2s.24.06.25.22-.06.29-.19.25c-.36-.08-.6.67-1 .13-.06-.08-.18-.23-.1-.26.94-.42-.04-.5-.19-.81z" class="D"/><path d="m25.311 33.835-.17-.69c-.04-.23 0-.31.16-.34a.54.54 0 0 1 .35 0 .25.25 0 0 1 .076.18.25.25 0 0 1-.076.18 5.99 5.99 0 0 1-.34.67z" class="G"/><path d="M23.481 30.125a.74.74 0 0 1-.12-.48c.19 0 .41 0 .45.23s-.15.26-.33.25z" class="H"/><path d="M27.011 31.905a.53.53 0 0 1-.68.19c.14-.27.36-.17.68-.19zm2.08.89c0 .11-.09.19-.2.17s-.13-.14-.12-.23 0-.17.14-.16a.22.22 0 0 1 .18.22zm-2.72-1.38c.05.07.1.11.1.16s-.05.07-.08.11-.09-.08-.1-.12.04-.07.08-.15zm-.21 1.78s0-.09.05-.1a.07.07 0 0 1 .05-.021.07.07 0 0 1 .05.021.1.1 0 0 1 0 .1s-.11.01-.15 0zm.3.3h.1a.13.13 0 0 1 0 .1.12.12 0 0 1-.1 0s-.02-.1 0-.1z" class="F"/><path d="M23.561 28.985v.1h-.1c-.01 0 0-.07 0-.1h.1zm.51.71h.05v.07h-.05a.1.1 0 0 0 0-.07z" class="H"/><path d="M68.011 42.725c-.23.06-.37.07-.37.1-.14.77-.82.41-1.23.57s-.47-.39-.71-.58-.07-.23 0-.32a.64.64 0 0 1 .69 0 13.71 13.71 0 0 0 1.62.23zm-1.75 3.11c0 .11-.14.09-.25.09s-.44 0-.44-.28c0-.14 0-.31.2-.29s.39.14.49.48zm-.93.71c.24-.15.46-.1.57-.28s.29-.13.37 0-.05.26-.18.32a.76.76 0 0 1-.76-.04z" class="C"/><path d="m65.221 40.365.15-.07c.29-.07.58-.25.87 0v.16a2.12 2.12 0 0 1-1.02-.09zm1.46.61c0 .12-.09.19-.21.17a.287.287 0 0 1-.103-.024.27.27 0 0 1-.141-.151.284.284 0 0 1-.017-.104.18.18 0 0 1 .16-.18.29.29 0 0 1 .218.078.29.29 0 0 1 .092.212z" class="B"/><path d="M65.131 44.315c.19-.15.37-.22.52 0a.15.15 0 0 1 0 .16c-.23.09-.36-.09-.52-.16z" class="C"/><path d="M63.811 44.435c-.22-.07-.49-.07-.46-.49.24.14.43.23.47.48l-.01.01z" class="B"/><path d="M68.321 46.555c-.08 0-.15.09-.17.08a.35.35 0 0 1-.14-.14c0-.11.07-.14.15-.1s.09.1.16.16zm-2.13-1.44c-.16.06-.31.11-.45 0 .17-.27.27-.02.45 0zm-.97-2.29c0 .08.08.13.08.18a.1.1 0 0 1-.045.107.1.1 0 0 1-.115-.007.2.2 0 0 1 0-.15c-.03-.05.03-.08.08-.13z" class="C"/><path d="M68.311 43.265a.51.51 0 0 1 .07.15c0 .11-.08.13-.16.1s-.06-.07-.09-.11l.18-.14zm-2.59-1.72c0 .1 0 .12-.1.11-.025-.005-.049-.016-.07-.032s-.038-.035-.05-.058a.073.073 0 0 1-.016-.023.07.07 0 0 1-.005-.027.07.07 0 0 1 .021-.05h.06l.16.08zm-.07-1.66v.11h-.1c-.01 0 0-.07 0-.1l.1-.01zm.3 1.33.06.08-.11.07v-.1c0-.03.02-.03.05-.05z" class="B"/><path d="M65.481 46.125h-.1c-.03 0-.06 0-.09-.05a.19.19 0 0 1 .1 0l.09.05z" class="C"/><path d="M66.951 40.915h.16v.05l-.14-.09-.02.04zm-3.13 3.51v.06l-.06-.05.06-.01z" class="B"/><path d="M51.921 31.495v.13a2.32 2.32 0 0 1-1.66-.4c.68-.27 1.13.27 1.66.27z" class="E"/><path d="M51.791 30.045c.13.36.21.59 0 .66a3.12 3.12 0 0 1-.81.11.15.15 0 0 1 0-.11.17.17 0 0 1-.004-.069c.003-.023.011-.045.024-.064s.028-.037.047-.05.04-.022.063-.027c.32.06.55 0 .68-.45z" class="I"/><path d="M50.921 34.405h-.5c-.19-.3-.26-.54.24-.49.13.17.33.1.5.12.03.19-.15.24-.24.37z" class="E"/><path d="M50.291 34.775v.14c-.25.21-.34 0-.49-.13.21-.21.34-.05.49-.01z" fill="#171717"/><path d="M51.011 35.285c.17 0 .37-.06.5.12-.16.09-.4.29-.5-.12z" class="E"/><path d="M52.541 30.495v.13c-.11-.08-.27-.09-.31-.25a.103.103 0 0 1 .05-.08c.15.01.21.13.26.2z" class="I"/><path d="M8.741 68.625c0-.46.58-.41.75-.74.06-.1.29 0 .31.2s.3.42 0 .63-.26.16-.39-.07-.4.14-.67-.02zm-2.04-11.55c-.09 0-.2 0-.19-.15.14 0 .14.1.15.19l.04-.04z" fill="#111"/><path d="M52.901 34.085c.09.2.34.14.48.33-.3.17-.61.23-.78-.09s.11-.6.38-.73a2 2 0 0 1 1-.05c.16 0 .2.13.19.27s-.1.23-.2.15c-.42-.33-.73.02-1.07.12zm-1.98.32c.07-.13.26-.18.24-.37a.23.23 0 0 1 .24.37c-.07.1 0 .48-.26.57s-.22 0-.21-.19.16-.29-.01-.38zm1.55-1.29-.93-.12a.2.2 0 0 1-.15-.23c0-.14.15-.12.24-.09l.88.3-.04.14zm1.07-1.96h.57c-.33.17-.49.34-.57 0zm-.25 0c0 .09 0 .2-.15.19 0-.14.1-.13.19-.15l-.04-.04zm-.06-1.51-.09-.06a.19.19 0 0 1 .1-.05s.06 0 .09.06l-.1.05z" class="F"/><path d="M2.891 30.745v.1s-.09 0-.1-.05 0-.07 0-.1l.1.05z" class="I"/><path d="M2.821 33.495c.12-.44.32-.19.56-.09-.21.18-.37.09-.56.09zm0 0c0 .09 0 .2-.15.18s.1-.14.19-.15l-.04-.03z" class="D"/><path d="M7.451 67.975h-.12c.04-.087.08-.087.12 0z" fill="#111"/></svg>
